<?xml version="1.0" standalone="no"?>
<!DOCTYPE svg PUBLIC "-//W3C//DTD SVG 20010904//EN"
 "http://www.w3.org/TR/2001/REC-SVG-20010904/DTD/svg10.dtd">
<svg version="1.0" xmlns="http://www.w3.org/2000/svg"
 width="143.000000pt" height="145.000000pt" viewBox="0 0 143.000000 145.000000"
 preserveAspectRatio="xMidYMid meet">

<g transform="translate(0.000000,145.000000) scale(0.100000,-0.100000)"
fill="#000000" stroke="none">
<path d="M0 725 l0 -725 715 0 715 0 0 725 0 725 -715 0 -715 0 0 -725z m885
648 c191 -47 362 -188 446 -368 49 -107 63 -171 63 -290 0 -185 -65 -336 -204
-476 -69 -70 -102 -94 -170 -127 -106 -51 -191 -72 -300 -72 -183 0 -335 64
-471 200 -95 94 -134 155 -175 275 -25 71 -28 94 -28 205 0 111 3 134 28 205
15 44 44 107 64 140 46 76 160 190 234 233 152 90 342 118 513 75z"/>
<path d="M635 1323 c-168 -22 -336 -131 -433 -281 -59 -92 -83 -169 -89 -291
-7 -124 5 -187 55 -294 l36 -78 34 65 c44 84 102 152 113 134 13 -20 10 -185
-6 -263 -13 -68 -13 -70 8 -87 12 -10 25 -18 28 -18 21 -1 37 307 20 383 -8
35 -7 38 19 52 16 8 32 15 35 15 9 0 26 -49 39 -113 l12 -58 212 -2 213 -2 5
25 c18 88 38 150 49 150 7 0 22 -8 34 -17 20 -17 21 -22 10 -78 -6 -33 -9 -96
-6 -141 7 -95 26 -214 36 -214 3 0 14 7 25 15 18 13 18 19 5 97 -14 88 -17
253 -5 266 12 11 80 -74 111 -139 16 -32 33 -59 37 -59 5 0 22 28 38 62 71
150 79 336 21 483 -103 263 -377 425 -656 388z m-86 -147 c21 -22 24 -22 59
-10 46 16 158 18 217 3 39 -10 46 -9 66 10 52 48 129 7 129 -67 0 -22 -6 -45
-14 -51 -13 -11 -12 -17 5 -46 11 -19 23 -59 26 -89 5 -47 2 -64 -21 -110 -51
-103 -150 -158 -291 -159 -95 -1 -147 12 -211 56 -104 69 -141 179 -95 281 19
44 20 50 5 78 -43 83 62 171 125 104z m189 -599 c3 -22 -1 -27 -18 -27 -23 0
-35 22 -26 46 10 25 41 12 44 -19z m-68 -7 c0 -13 -7 -20 -19 -20 -22 0 -35
15 -26 30 12 19 45 11 45 -10z m140 0 c0 -13 -7 -20 -19 -20 -22 0 -35 15 -26
30 12 19 45 11 45 -10z"/>
<path d="M793 1039 c-26 -10 -37 -40 -28 -80 9 -39 85 -119 113 -119 33 0 62
35 62 74 0 68 -91 146 -147 125z m47 -83 c0 -8 -4 -17 -9 -21 -12 -7 -24 12
-16 25 9 15 25 12 25 -4z"/>
<path d="M556 1019 c-57 -45 -76 -134 -34 -163 12 -9 30 -16 40 -16 29 0 86
58 104 105 15 42 15 46 0 70 -21 32 -72 34 -110 4z m69 -60 c10 -15 -1 -23
-20 -15 -9 3 -13 10 -10 16 8 13 22 13 30 -1z"/>
<path d="M662 848 c-13 -16 -5 -32 21 -41 30 -11 16 -42 -21 -45 -17 -2 -32
-7 -32 -12 0 -16 47 -22 70 -10 16 9 25 9 33 1 16 -16 52 -14 67 4 11 13 8 15
-18 15 -21 0 -35 7 -42 20 -9 17 -7 22 15 30 17 7 25 16 23 28 -4 22 -99 30
-116 10z"/>
<path d="M700 410 c0 -15 5 -20 18 -18 9 2 17 10 17 18 0 8 -8 16 -17 18 -13
2 -18 -3 -18 -18z"/>
<path d="M600 341 c-19 -5 -53 -15 -75 -22 -36 -13 -40 -18 -43 -50 -3 -31 2
-41 29 -64 28 -23 31 -30 21 -46 -10 -15 -8 -20 8 -29 35 -19 163 -33 232 -26
63 7 68 10 93 46 52 75 55 163 6 182 -34 13 -226 19 -271 9z m260 -69 c0 -20
-29 -84 -47 -104 -13 -14 -32 -18 -94 -18 -74 0 -78 1 -103 31 -14 17 -29 43
-32 57 -3 15 -7 32 -9 37 -1 6 50 10 141 10 111 0 144 -3 144 -13z m-330 -19
c0 -22 -2 -25 -10 -13 -13 20 -13 40 0 40 6 0 10 -12 10 -27z"/>
</g>
</svg>
